<svg width="278" height="278" viewBox="0 0 278 278" fill="none" xmlns="http://www.w3.org/2000/svg">
<path d="M139 278C215.768 278 278 215.768 278 139C278 62.2324 215.768 0 139 0C62.2324 0 0 62.2324 0 139C0 215.768 62.2324 278 139 278Z" fill="#4F48BE"/>
<path d="M130 210.515L188.481 269C233.869 251.809 267.855 211.443 276 162.337L191.669 78L130 210.515Z" fill="#6C63FF"/>
<path d="M139.001 278C158.923 278 177.863 273.8 195 266.251L166.307 165.652C164.002 157.572 156.628 152 148.239 152H129.762C121.372 152 113.999 157.571 111.694 165.652L83 266.251C100.137 273.8 119.078 278 139.001 278Z" fill="#9A94FC"/>
<path d="M195 266.25L166.116 165.652C163.796 157.572 156.374 152 147.929 152H138V277.991C138.21 277.992 138.419 278 138.629 278C158.683 277.999 177.749 273.799 195 266.25Z" fill="#CBA2EC"/>
<path d="M163.282 96.9447C156.006 93.2251 147.754 91.1113 138.999 91.1113C130.245 91.1113 121.993 93.2251 114.717 96.9447L86 78V143.555C86 172.52 109.729 196 139 196C168.271 196 192 172.52 192 143.555V78L163.282 96.9447Z" fill="#B49EE3"/>
<path d="M163.084 96.9447C155.758 93.2251 147.449 91.1113 138.635 91.1113C138.421 91.1113 138.212 91.1281 138 91.1298V195.984C138.212 195.987 138.422 196 138.635 196C168.107 196 192 172.52 192 143.555V78L163.084 96.9447Z" fill="#CFCCFF"/>
<path d="M115.5 154C117.985 154 120 151.985 120 149.5C120 147.015 117.985 145 115.5 145C113.015 145 111 147.015 111 149.5C111 151.985 113.015 154 115.5 154Z" fill="#324A5E"/>
<path d="M162.5 154C164.985 154 167 151.985 167 149.5C167 147.015 164.985 145 162.5 145C160.015 145 158 147.015 158 149.5C158 151.985 160.015 154 162.5 154Z" fill="#2B3B4E"/>
<path d="M153.413 171.621C153.413 175.307 150.485 178.304 146.886 178.304C144.563 178.304 142.469 177.052 141.293 175.022V162.031C143.298 160.754 145.891 158.645 145.891 156.254C145.891 152.358 142.806 153.047 139 153.047C135.194 153.047 132.109 152.358 132.109 156.254C132.109 158.645 134.702 160.754 136.707 162.031V175.022C135.532 177.051 133.437 178.304 131.114 178.304C127.515 178.304 124.587 175.306 124.587 171.621H120C120 177.896 124.985 183 131.114 183C134.141 183 136.95 181.766 139 179.641C141.049 181.766 143.858 183 146.886 183C153.014 183 158 177.896 158 171.621H153.413Z" fill="#324A5E"/>
<path d="M153.322 171.622C153.322 175.308 150.336 178.305 146.665 178.305C144.296 178.305 142.161 177.054 140.962 175.023V162.031C143.007 160.755 145.651 158.645 145.651 156.254C145.651 152.358 142.504 153.047 138.623 153.047C138.412 153.047 138.206 153.044 138 153.042V180.216C138.212 180.03 138.425 179.843 138.623 179.641C140.713 181.766 143.578 183 146.665 183C152.915 183 158 177.896 158 171.621H153.322V171.622Z" fill="#2B3B4E"/>
<path d="M147 127.266V90.5928C144.388 90.2175 141.721 90 139 90C136.279 90 133.612 90.2175 131 90.5928V127.266C131 131.537 134.582 135 139 135C143.418 135 147 131.537 147 127.266Z" fill="#CFCCFF"/>
<path d="M139 90.3276C138.792 90.3276 138.585 90.3379 138.377 90.3395V135.225C138.582 135.241 138.789 135.257 139 135.257C143.265 135.257 146.722 131.799 146.722 127.535V90.9189C144.201 90.5437 141.626 90.3276 139 90.3276Z" fill="#B49EE3"/>
<path d="M155.146 119.344C158.119 119.344 160.528 116.935 160.528 113.962V94.9629C157.119 93.423 153.512 92.2491 149.764 91.4629V113.962C149.764 116.935 152.173 119.344 155.146 119.344Z" fill="#B49EE3"/>
<path d="M118 95.3893V113.788C118 116.667 120.238 119 123 119C125.762 119 128 116.667 128 113.788V92C124.517 92.7614 121.167 93.8981 118 95.3893Z" fill="#CFCCFF"/>
</svg>
